HIERARCHY
ROOT Hips
{
	OFFSET 0.000000 35.082581 0.000000
	CHANNELS 6 Xposition Yposition Zposition Xrotation Yrotation Zrotation 
	JOINT Spine
	{
		OFFSET 0.000000 6.876099 0.125700
		CHANNELS 3 Xrotation Yrotation Zrotation
		JOINT Spine1
		{
			OFFSET 0.000000 5.730043 0.104720
			CHANNELS 3 Xrotation Yrotation Zrotation
			JOINT Spine1_split
			{
				OFFSET 0.000000 5.730043 0.104720
				CHANNELS 3 Xrotation Yrotation Zrotation
				JOINT Spine2
				{
					OFFSET 0.000000 5.730043 0.104720
					CHANNELS 3 Xrotation Yrotation Zrotation
					JOINT Neck
					{
						OFFSET 0.000000 10.314075 0.188496
						CHANNELS 3 Xrotation Yrotation Zrotation
						JOINT Head
						{
							OFFSET 0.000000 7.643700 -2.377400
							CHANNELS 3 Xrotation Yrotation Zrotation
							JOINT HeadTop_End
							{
								OFFSET 0.000000 43.788605 -13.619600
								CHANNELS 3 Xrotation Yrotation Zrotation
								End Site
								{
									OFFSET 0.000000 0.000000 0.000000
								}
							}
						}
					}
					JOINT LeftShoulder
					{
						OFFSET 2.196100 4.412489 0.087492
						CHANNELS 3 Xrotation Yrotation Zrotation
						JOINT LeftShoulder_split
						{
							OFFSET 2.196100 4.412489 0.087492
							CHANNELS 3 Xrotation Yrotation Zrotation
							JOINT LeftArm
							{
								OFFSET 8.771219 -2.981674 -0.026999
								CHANNELS 3 Xrotation Yrotation Zrotation
								JOINT LeftForeArm
								{
									OFFSET 8.512804 0.000000 -0.000000
									CHANNELS 3 Xrotation Yrotation Zrotation
									JOINT LeftHand
									{
										OFFSET 18.484802 0.000000 -0.000000
										CHANNELS 3 Xrotation Yrotation Zrotation
										JOINT LeftHandThumb1
										{
											OFFSET 2.499420 -1.158070 2.653252
											CHANNELS 3 Xrotation Yrotation Zrotation
											JOINT LeftHandThumb2
											{
												OFFSET 2.370079 -1.368366 1.368366
												CHANNELS 3 Xrotation Yrotation Zrotation
												JOINT LeftHandThumb3
												{
													OFFSET 2.676727 -1.545410 1.545409
													CHANNELS 3 Xrotation Yrotation Zrotation
													JOINT LeftHandThumb4
													{
														OFFSET 1.692226 -0.977005 0.977007
														CHANNELS 3 Xrotation Yrotation Zrotation
														End Site
														{
															OFFSET 0.000000 0.000000 0.000000
														}
													}
												}
											}
										}
										JOINT LeftHandIndex1
										{
											OFFSET 7.924831 -0.457527 2.345128
											CHANNELS 3 Xrotation Yrotation Zrotation
											JOINT LeftHandIndex2
											{
												OFFSET 3.643303 0.000000 0.000000
												CHANNELS 3 Xrotation Yrotation Zrotation
												JOINT LeftHandIndex3
												{
													OFFSET 3.810799 0.000000 0.000000
													CHANNELS 3 Xrotation Yrotation Zrotation
													JOINT LeftHandIndex4
													{
														OFFSET 2.403702 0.000000 0.000000
														CHANNELS 3 Xrotation Yrotation Zrotation
														End Site
														{
															OFFSET 0.000000 0.000000 0.000000
														}
													}
												}
											}
										}
										JOINT LeftHandMiddle1
										{
											OFFSET 8.563995 0.000000 -0.000000
											CHANNELS 3 Xrotation Yrotation Zrotation
											JOINT LeftHandMiddle2
											{
												OFFSET 3.861618 0.000000 0.000000
												CHANNELS 3 Xrotation Yrotation Zrotation
												JOINT LeftHandMiddle3
												{
													OFFSET 3.701603 0.000000 0.000000
													CHANNELS 3 Xrotation Yrotation Zrotation
													JOINT LeftHandMiddle4
													{
														OFFSET 2.322544 0.000000 0.000000
														CHANNELS 3 Xrotation Yrotation Zrotation
														End Site
														{
															OFFSET 0.000000 0.000000 0.000000
														}
													}
												}
											}
										}
										JOINT LeftHandRing1
										{
											OFFSET 8.426460 -0.424637 -3.286992
											CHANNELS 3 Xrotation Yrotation Zrotation
											JOINT LeftHandRing2
											{
												OFFSET 3.126408 0.000000 0.000000
												CHANNELS 3 Xrotation Yrotation Zrotation
												JOINT LeftHandRing3
												{
													OFFSET 3.085026 0.000000 0.000000
													CHANNELS 3 Xrotation Yrotation Zrotation
													JOINT LeftHandRing4
													{
														OFFSET 1.644005 0.000000 0.000000
														CHANNELS 3 Xrotation Yrotation Zrotation
														End Site
														{
															OFFSET 0.000000 0.000000 0.000000
														}
													}
												}
											}
										}
									}
								}
							}
						}
					}
					JOINT RightShoulder
					{
						OFFSET -2.196100 4.412496 0.070690
						CHANNELS 3 Xrotation Yrotation Zrotation
						JOINT RightShoulder_split
						{
							OFFSET -2.196100 4.412496 0.070690
							CHANNELS 3 Xrotation Yrotation Zrotation
							JOINT RightArm
							{
								OFFSET -8.771282 -2.981682 -0.094208
								CHANNELS 3 Xrotation Yrotation Zrotation
								JOINT RightForeArm
								{
									OFFSET -8.494598 0.000000 0.000000
									CHANNELS 3 Xrotation Yrotation Zrotation
									JOINT RightHand
									{
										OFFSET -18.483803 0.000000 0.000001
										CHANNELS 3 Xrotation Yrotation Zrotation
										JOINT RightHandThumb1
										{
											OFFSET -2.527351 -1.008072 2.575253
											CHANNELS 3 Xrotation Yrotation Zrotation
											JOINT RightHandThumb2
											{
												OFFSET -2.321518 -1.340328 1.340329
												CHANNELS 3 Xrotation Yrotation Zrotation
												JOINT RightHandThumb3
												{
													OFFSET -2.657753 -1.534454 1.534455
													CHANNELS 3 Xrotation Yrotation Zrotation
													JOINT RightHandThumb4
													{
														OFFSET -1.807510 -1.043568 1.043567
														CHANNELS 3 Xrotation Yrotation Zrotation
														End Site
														{
															OFFSET 0.000000 0.000000 0.000000
														}
													}
												}
											}
										}
										JOINT RightHandIndex1
										{
											OFFSET -8.811420 0.015533 2.887987
											CHANNELS 3 Xrotation Yrotation Zrotation
											JOINT RightHandIndex2
											{
												OFFSET -3.537502 0.000000 0.000000
												CHANNELS 3 Xrotation Yrotation Zrotation
												JOINT RightHandIndex3
												{
													OFFSET -3.356201 0.000000 0.000000
													CHANNELS 3 Xrotation Yrotation Zrotation
													JOINT RightHandIndex4
													{
														OFFSET -1.933098 0.000000 0.000000
														CHANNELS 3 Xrotation Yrotation Zrotation
														End Site
														{
															OFFSET 0.000000 0.000000 0.000000
														}
													}
												}
											}
										}
										JOINT RightHandMiddle1
										{
											OFFSET -8.178135 0.000000 0.000000
											CHANNELS 3 Xrotation Yrotation Zrotation
											JOINT RightHandMiddle2
											{
												OFFSET -3.901302 0.000000 0.000000
												CHANNELS 3 Xrotation Yrotation Zrotation
												JOINT RightHandMiddle3
												{
													OFFSET -3.909599 0.000000 0.000000
													CHANNELS 3 Xrotation Yrotation Zrotation
													JOINT RightHandMiddle4
													{
														OFFSET -2.376003 0.000000 0.000000
														CHANNELS 3 Xrotation Yrotation Zrotation
														End Site
														{
															OFFSET 0.000000 0.000000 0.000000
														}
													}
												}
											}
										}
										JOINT RightHandRing1
										{
											OFFSET -7.559013 0.014137 -2.865403
											CHANNELS 3 Xrotation Yrotation Zrotation
											JOINT RightHandRing2
											{
												OFFSET -3.449306 0.000000 0.000000
												CHANNELS 3 Xrotation Yrotation Zrotation
												JOINT RightHandRing3
												{
													OFFSET -3.362106 0.000000 0.000000
													CHANNELS 3 Xrotation Yrotation Zrotation
													JOINT RightHandRing4
													{
														OFFSET -2.076401 0.000000 0.000000
														CHANNELS 3 Xrotation Yrotation Zrotation
														End Site
														{
															OFFSET 0.000000 0.000000 0.000000
														}
													}
												}
											}
										}
									}
								}
							}
						}
					}
				}
			}
		}
	}
	JOINT LeftUpLeg
	{
		OFFSET 10.205400 -3.823500 0.155100
		CHANNELS 3 Xrotation Yrotation Zrotation
		JOINT LeftLeg
		{
			OFFSET 0.708757 -12.982077 0.567790
			CHANNELS 3 Xrotation Yrotation Zrotation
			JOINT LeftFoot
			{
				OFFSET -0.708756 -10.717838 -2.184338
				CHANNELS 3 Xrotation Yrotation Zrotation
				JOINT LeftToeBase
				{
					OFFSET 0.108149 -7.191104 7.560241
					CHANNELS 3 Xrotation Yrotation Zrotation
					JOINT LeftToe_End
					{
						OFFSET 0.070230 0.081724 4.490308
						CHANNELS 3 Xrotation Yrotation Zrotation
						End Site
						{
							OFFSET 0.000000 0.000000 0.000000
						}
					}
				}
			}
		}
	}
	JOINT RightUpLeg
	{
		OFFSET -10.205400 -3.823500 0.005500
		CHANNELS 3 Xrotation Yrotation Zrotation
		JOINT RightLeg
		{
			OFFSET -0.708756 -12.982134 0.610632
			CHANNELS 3 Xrotation Yrotation Zrotation
			JOINT RightFoot
			{
				OFFSET 0.708754 -10.717769 -1.945823
				CHANNELS 3 Xrotation Yrotation Zrotation
				JOINT RightToeBase
				{
					OFFSET -0.108140 -7.191069 7.372968
					CHANNELS 3 Xrotation Yrotation Zrotation
					JOINT RightToe_End
					{
						OFFSET -0.070227 0.081735 4.479403
						CHANNELS 3 Xrotation Yrotation Zrotation
						End Site
						{
							OFFSET 0.000000 0.000000 0.000000
						}
					}
				}
			}
		}
	}
}
MOTION
Frames: 5
Frame Time: 0.016667
2.799195 30.669319 -0.437348 7.618913 -12.303258 -0.934169 12.250625 3.287735 -0.980042 8.663409 6.770422 -1.612661 0.000000 0.000000 0.000000 -3.297303 6.958099 -0.159534 -0.991911 -3.974976 2.371376 -6.068529 4.595729 3.692734 0.000001 0.000000 -0.000000 -1.718776 -6.046476 -0.999704 0.000000 0.000000 0.000000 -9.929230 -3.537244 -61.475671 -13.021826 -28.779217 -4.874864 3.253028 -3.484889 2.550448 9.040728 -12.718944 18.216743 1.363583 15.487452 -8.835085 2.768808 5.065086 -0.579216 -0.000003 0.000001 -0.000007 0.246861 -3.282366 -9.380887 0.146896 -0.568598 -12.524030 0.007940 -0.244576 -4.933871 0.000000 0.000001 -0.000000 0.303775 -1.400856 -19.445135 -0.067867 -0.992369 -19.744957 0.120435 -0.521063 -9.722802 0.000000 -0.000002 0.000002 0.311360 -1.053616 -29.065597 -0.418710 -1.362107 -26.922207 -0.031967 -0.468520 -8.966076 -0.000003 -0.000002 -0.000001 5.719866 -19.303436 3.068961 0.000000 0.000000 0.000000 43.556693 52.747604 9.950976 16.038106 32.046845 10.507641 -14.715653 13.315906 13.704594 9.209778 13.472167 -12.080017 2.060333 -16.534843 8.984664 2.637309 -3.206712 2.677721 -0.000001 0.000003 0.000003 0.272417 4.252667 3.917182 0.097345 0.794960 17.452774 -0.022307 0.374576 8.076831 -0.000001 -0.000002 0.000002 0.238343 1.901030 12.464130 -0.127015 0.878972 17.470133 -0.255539 0.923243 18.481727 0.000001 0.000004 -0.000002 0.354433 1.611347 15.137417 -0.271892 0.900470 18.135617 0.013495 0.824266 15.075146 -0.000001 0.000000 -0.000000 -38.345044 3.715737 17.123781 61.022098 6.326141 -1.366622 -26.972456 7.547946 -12.271270 -3.075568 -2.348326 -2.459387 -0.000000 -0.000000 0.000000 -18.971281 -7.715591 -17.891703 56.599797 -5.055624 -3.601380 -27.127517 -6.297990 16.166013 -15.200369 -4.745671 7.176207 0.000000 0.000003 0.000000 
2.839131 30.796288 -0.431986 7.678918 -12.359238 -1.232015 12.206174 3.243068 -0.943073 8.547020 6.722062 -1.512191 0.000000 0.000000 0.000000 -3.408232 6.901167 -0.063847 -1.053642 -3.761030 2.184397 -5.982001 4.507763 3.913931 0.000001 -0.000000 0.000000 -1.721890 -5.625969 -0.861878 0.000000 0.000000 0.000000 -9.809317 -3.483224 -61.749657 -12.683619 -28.217834 -4.423309 2.945144 -3.556555 2.922814 8.621176 -13.079520 18.342620 1.306462 15.454479 -8.827694 2.548440 4.752310 -0.598159 -0.000003 -0.000002 -0.000000 0.229286 -3.521993 -8.971281 0.151043 -0.550437 -12.121717 0.010812 -0.207376 -4.147096 0.000001 0.000001 -0.000000 0.267605 -1.573900 -19.285060 -0.064379 -0.926957 -18.408099 0.102064 -0.466378 -8.764232 0.000001 -0.000001 -0.000001 0.257088 -1.314066 -28.904264 -0.368998 -1.304186 -25.643810 0.000471 -0.409329 -7.777150 -0.000001 0.000000 0.000003 5.552876 -18.831834 2.973351 0.000000 0.000000 0.000000 39.568290 52.456604 11.456122 15.406284 28.844343 12.492171 -12.915780 11.870640 10.921189 8.723127 10.519492 -15.535918 3.760569 -18.612711 9.384827 2.619909 -3.214949 2.638592 -0.000002 -0.000001 -0.000001 0.272401 4.252689 3.917179 0.097358 0.794941 17.452766 -0.022320 0.374583 8.076797 0.000001 -0.000001 0.000000 0.238597 1.901089 12.464106 -0.127003 0.878888 17.470142 -0.252913 0.923488 18.481708 0.000000 -0.000001 0.000003 0.333463 1.685674 16.601063 -0.293346 0.971919 19.599084 -0.008526 0.902005 16.538296 -0.000001 0.000002 -0.000002 -38.236331 3.753866 17.322275 60.467398 6.312931 -1.310850 -26.683326 7.510357 -12.154728 -3.075547 -2.348349 -2.459374 0.000001 0.000000 0.000000 -18.870032 -7.875330 -17.271955 53.986293 -4.439656 -3.453625 -26.922065 -5.573410 16.334314 -14.271855 -2.387945 5.487518 -0.000001 -0.000001 -0.000000 
2.874579 30.933815 -0.439538 7.695646 -12.517181 -1.389572 12.141461 3.217061 -0.906216 8.392768 6.705785 -1.434636 0.000000 0.000000 0.000000 -3.557801 6.874139 0.015579 -1.257219 -3.492915 1.762464 -5.750389 4.331827 4.311511 0.000002 -0.000000 0.000000 -1.718688 -4.981528 -0.876736 0.000000 0.000000 0.000000 -9.750009 -3.501920 -62.027420 -12.393329 -27.714440 -3.952345 2.908199 -3.641423 2.842461 8.234300 -13.400450 18.456471 1.254992 15.424696 -8.821079 2.348801 4.470545 -0.616931 -0.000003 -0.000002 -0.000002 0.217568 -3.737798 -8.582420 0.154695 -0.534112 -11.758751 0.012896 -0.173821 -3.437455 0.000000 -0.000001 0.000000 0.236380 -1.729260 -19.127287 -0.062512 -0.868299 -17.202204 0.084645 -0.417765 -7.899490 0.000001 0.000001 -0.000001 0.210333 -1.547668 -28.740114 -0.325323 -1.250641 -24.490873 0.028674 -0.354987 -6.704779 -0.000002 -0.000002 -0.000004 5.335508 -18.451749 2.888894 0.000000 0.000000 0.000000 35.701327 51.672304 13.059068 16.301524 26.406591 13.088677 -11.445496 11.784240 6.571874 8.389691 8.489663 -17.965515 4.956775 -20.040668 9.703279 2.602554 -3.223206 2.599443 0.000001 -0.000000 0.000001 0.272399 4.252679 3.917164 0.097324 0.794955 17.452837 -0.022307 0.374591 8.076840 -0.000001 -0.000000 0.000002 0.238802 1.901184 12.464100 -0.127007 0.878917 17.470142 -0.250228 0.923630 18.481722 0.000000 0.000001 -0.000000 0.317768 1.737018 17.612027 -0.308438 1.021274 20.610002 -0.024854 0.955251 17.548972 -0.000000 0.000001 -0.000004 -37.916255 3.956242 17.409292 59.643527 6.354477 -1.263802 -26.281012 7.491077 -12.038136 -3.075532 -2.348365 -2.459385 0.000000 -0.000001 -0.000000 -18.689389 -7.957386 -16.799496 51.190704 -3.992290 -3.301551 -26.647776 -4.850934 16.489952 -11.723805 -2.235817 4.212856 -0.000000 0.000001 0.000000 
2.892755 31.060604 -0.436371 7.716630 -12.625927 -1.536518 12.074916 3.192435 -0.869223 8.235416 6.693140 -1.358527 0.000000 0.000000 0.000000 -3.710608 6.857831 0.094730 -1.458328 -3.264163 1.331756 -5.486251 4.125539 4.660446 0.000002 -0.000000 -0.000000 -1.716035 -4.454588 -0.893320 0.000000 0.000000 0.000000 -9.717401 -3.541829 -62.272269 -11.923619 -27.096124 -3.494361 2.744751 -3.959312 2.862290 7.883929 -13.676983 18.558630 1.209522 15.398670 -8.814986 2.172645 4.223000 -0.634718 -0.000002 0.000001 -0.000002 0.211197 -3.927025 -8.217436 0.157839 -0.519714 -11.439757 0.014342 -0.144348 -2.813560 0.000000 0.000000 0.000000 0.210196 -1.865046 -18.972500 -0.061838 -0.817020 -16.141844 0.068716 -0.375528 -7.139139 0.000001 -0.000002 -0.000001 0.171264 -1.751782 -28.573639 -0.287835 -1.202491 -23.477076 0.052725 -0.306452 -5.761893 -0.000002 -0.000000 -0.000002 5.098999 -17.776580 2.830986 0.000000 0.000000 0.000000 31.146834 51.316871 16.165637 17.702681 22.785021 11.882980 -9.757204 12.247064 4.285805 8.265272 7.734459 -18.880847 5.407737 -20.572229 9.831265 2.585104 -3.231400 2.560332 0.000000 -0.000003 -0.000001 0.272380 4.252679 3.917158 0.097384 0.794956 17.452814 -0.022294 0.374598 8.076824 -0.000003 -0.000001 0.000001 0.239031 1.901199 12.464078 -0.126996 0.878925 17.470133 -0.247591 0.923897 18.481727 0.000000 -0.000001 0.000002 0.313133 1.756772 17.989245 -0.312741 1.040281 20.987163 -0.031219 0.975071 17.926106 -0.000000 -0.000002 -0.000001 -37.679603 4.312158 17.487417 58.839532 6.199484 -1.023183 -25.894736 7.549743 -11.921376 -3.075553 -2.348382 -2.459385 -0.000000 -0.000001 -0.000000 -18.470290 -8.052598 -16.415450 48.415608 -3.804076 -3.084068 -26.248304 -3.975314 16.693302 -8.843537 -2.898048 4.936874 -0.000000 0.000003 0.000000 
2.914948 31.173332 -0.454055 7.733984 -12.752394 -1.677204 12.007323 3.168327 -0.831236 8.076093 6.682153 -1.283644 0.000000 0.000000 0.000000 -3.865398 6.846915 0.173205 -1.691409 -3.047242 0.751944 -5.158178 3.831016 5.063944 0.000001 -0.000000 -0.000000 -1.703476 -4.073363 -1.096778 0.000000 0.000000 0.000000 -9.664158 -3.522008 -62.401346 -11.500604 -26.618031 -3.042130 2.459118 -4.058507 2.395173 7.573804 -13.904534 18.649200 1.170965 15.376585 -8.809692 2.022625 4.013042 -0.650865 -0.000005 -0.000000 -0.000002 0.209534 -4.086958 -7.879181 0.160501 -0.507481 -11.168774 0.015283 -0.119310 -2.283901 -0.000000 -0.000000 -0.000000 0.189239 -1.979479 -18.821355 -0.061993 -0.773667 -15.241637 0.054670 -0.340122 -6.493683 -0.000000 0.000000 0.000001 0.140093 -1.923750 -28.405068 -0.256667 -1.160877 -22.616491 0.072481 -0.264726 -4.961451 -0.000003 0.000001 -0.000003 4.854592 -16.949449 2.779337 0.000000 0.000000 0.000000 27.281666 49.320270 18.941532 19.387577 21.796658 11.319702 -7.957897 11.669714 0.884144 8.265315 7.734433 -18.880880 5.407705 -20.572216 9.831394 2.567664 -3.239599 2.521186 0.000002 0.000000 -0.000002 0.272420 4.252694 3.917169 0.097345 0.794969 17.452817 -0.022314 0.374576 8.076852 0.000003 -0.000000 0.000001 0.239274 1.901246 12.464069 -0.127000 0.878950 17.470142 -0.244898 0.924065 18.481713 0.000001 -0.000000 0.000003 0.313104 1.756902 17.989204 -0.310287 1.041339 20.987107 -0.031212 0.975084 17.926071 0.000002 -0.000000 0.000002 -37.439026 4.396782 17.551588 58.163118 6.294281 -0.963448 -25.513323 7.546749 -11.892358 -3.075543 -2.348362 -2.459393 0.000001 -0.000000 0.000000 -18.421471 -8.167545 -16.072256 45.799646 -3.759772 -2.986809 -25.677524 -3.032784 16.963461 -6.090925 -2.859787 6.889010 0.000000 0.000001 -0.000000 
